<?xml version="1.0" encoding="utf-8"?><svg viewBox="0 0 40 40" xmlns="http://www.w3.org/2000/svg" xmlns:xlink="http://www.w3.org/1999/xlink"><style>:root>svg{display:none}:root>svg:target{display:block}</style><svg viewBox="0 0 40 40" id="fb" xmlns="http://www.w3.org/2000/svg"><path fill-rule="evenodd" clip-rule="evenodd" d="M20 0C8.954 0 0 8.955 0 20c0 11.046 8.954 20 20 20s20-8.954 20-20C40 8.955 31.046 0 20 0zm2.085 20.879V31.76h-4.502V20.88h-2.25v-3.75h2.25v-2.251c0-3.06 1.27-4.878 4.878-4.878h3.004v3.75h-1.878c-1.404 0-1.497.524-1.497 1.502l-.005 1.876h3.401l-.398 3.75h-3.003z"/></svg><svg viewBox="0 0 40 40" id="gg" xmlns="http://www.w3.org/2000/svg"><path fill-rule="evenodd" clip-rule="evenodd" d="M0 20C0 8.955 8.954 0 20 0s20 8.955 20 20c0 11.046-8.954 20-20 20S0 31.047 0 20zm16.34-.57v2.17h3.604c-.145.932-1.09 2.733-3.604 2.733-2.17 0-3.94-1.792-3.94-4 0-2.207 1.77-3.998 3.94-3.998 1.235 0 2.06.524 2.533.977l1.724-1.656c-1.107-1.031-2.541-1.655-4.257-1.655-3.513 0-6.354 2.831-6.354 6.333 0 3.501 2.84 6.333 6.354 6.333 3.668 0 6.1-2.57 6.1-6.188a5.76 5.76 0 00-.1-1.05h-6zm11.801 0h1.816v1.809H28.14v1.81h-1.815v-1.81H24.51v-1.81h1.816v-1.81h1.815v1.81z"/></svg><svg viewBox="0 0 40 40" id="tl" xmlns="http://www.w3.org/2000/svg"><path fill-rule="evenodd" clip-rule="evenodd" d="M20 40c11.046 0 20-8.954 20-20C40 8.955 31.046 0 20 0S0 8.955 0 20c0 11.046 8.954 20 20 20zm-3.667-10.833c.487 0 .71-.216.978-.478l.022-.022 2.403-2.336 4.997 3.693c.92.507 1.584.244 1.813-.854l3.28-15.46c.337-1.348-.512-1.958-1.392-1.559L9.169 19.58c-1.315.527-1.308 1.26-.24 1.588l4.944 1.543 11.445-7.221c.54-.328 1.036-.152.63.21l-9.274 8.368v.001l-.34 5.098z"/></svg></svg>